<svg xmlns="http://www.w3.org/2000/svg" viewBox="0 0 512 512">
    <defs>
        <linearGradient id="pinkGradientDark" x1="0%" y1="0%" x2="100%" y2="100%">
            <stop offset="0%" stop-color="#ff7e9e" />
            <stop offset="100%" stop-color="#fb5c82" />
        </linearGradient>
    </defs>
    <!-- Background rounded square -->
    <rect width="512" height="512" rx="128" fill="url(#pinkGradientDark)" />
    <!-- White Crescent -->
    <path d="M256,100 C169.9,100 100,169.9 100,256 C100,342.1 169.9,412 256,412 C282.4,412 307.4,405.3 329.5,393.5 C260.6,382.4 207.3,322.6 207.3,250 C207.3,175.7 263.1,114.6 334.2,104.8 C309.9,101 283.6,100 256,100 Z" fill="#ffffff" />
    <!-- AI Sparkle / Star (Large) -->
    <path d="M350,150 Q350,195 395,195 Q350,195 350,240 Q350,195 305,195 Q350,195 350,150 Z" fill="#ffffff"/>
    <!-- AI Sparkle / Star (Small) -->
    <path d="M280,260 Q280,285 305,285 Q280,285 280,310 Q280,285 255,285 Q280,285 280,260 Z" fill="#ffffff" opacity="0.8"/>
</svg>
